<svg width="32" height="32" viewBox="0 0 32 32" fill="none" xmlns="http://www.w3.org/2000/svg">
<path fill-rule="evenodd" clip-rule="evenodd" d="M12.5721 11.9587H17.5241V14.4253C18.2374 13.0067 20.0667 11.732 22.8147 11.732C28.0827 11.732 29.3334 14.556 29.3334 19.7373V29.3333H24.0001V20.9173C24.0001 17.9667 23.2867 16.3027 21.4707 16.3027C18.9521 16.3027 17.9054 18.096 17.9054 20.916V29.3333H12.5721V11.9587ZM3.42675 29.1067H8.76008V11.732H3.42675V29.1067ZM9.52408 6.06666C9.52428 6.51369 9.43562 6.9563 9.26326 7.36877C9.09091 7.78124 8.83828 8.15534 8.52008 8.46932C7.87528 9.11016 7.00249 9.46886 6.09341 9.46666C5.18593 9.46605 4.31516 9.10825 3.66941 8.47066C3.35236 8.15561 3.1006 7.78109 2.92854 7.36857C2.75648 6.95604 2.66752 6.51362 2.66675 6.06666C2.66675 5.16399 3.02675 4.29999 3.67075 3.66266C4.31593 3.0242 5.18707 2.66626 6.09475 2.66666C7.00408 2.66666 7.87608 3.02532 8.52008 3.66266C9.16275 4.29999 9.52408 5.16399 9.52408 6.06666Z" fill="white"/>
</svg>
