<svg width="32" height="32" viewBox="0 0 32 32" fill="none" xmlns="http://www.w3.org/2000/svg">
<path d="M26.6667 26.6667H5.33341C4.62617 26.6667 3.94789 26.3857 3.4478 25.8856C2.9477 25.3855 2.66675 24.7073 2.66675 24V7.88401C2.69666 7.19706 2.99076 6.54822 3.48765 6.07294C3.98454 5.59767 4.64582 5.33269 5.33341 5.33334H26.6667C27.374 5.33334 28.0523 5.6143 28.5524 6.11439C29.0525 6.61449 29.3334 7.29277 29.3334 8.00001V24C29.3334 24.7073 29.0525 25.3855 28.5524 25.8856C28.0523 26.3857 27.374 26.6667 26.6667 26.6667ZM5.33341 10.4907V24H26.6667V10.4907L16.0001 17.6L5.33341 10.4907ZM6.40008 8.00001L16.0001 14.4L25.6001 8.00001H6.40008Z" fill="white"/>
</svg>
