<svg width="32" height="32" viewBox="0 0 32 32" fill="none" xmlns="http://www.w3.org/2000/svg">
<g clip-path="url(#clip0_155_5409)">
<circle cx="16" cy="16" r="16" fill="white"/>
<path fill-rule="evenodd" clip-rule="evenodd" d="M5.57227 22.8109V8.84973H12.0263C14.0993 8.84973 15.7799 10.5303 15.7799 12.6033C15.7799 13.9206 15.3748 14.7366 13.8896 15.5738C15.6669 16.3836 16.1605 17.5059 16.1605 19.0715C16.1605 21.1893 14.2791 22.8109 12.1613 22.8109H5.57227ZM8.30333 11.1608V14.5179H11.4998C11.4998 14.5179 13.0533 14.5179 13.0533 12.8393C13.0533 11.1608 11.4998 11.1608 11.4998 11.1608H8.30333ZM8.30333 20.4465V16.8215H11.7319C12.2855 16.8215 13.4462 17.1072 13.4462 18.8215C13.4462 20.0929 12.3033 20.4346 11.7319 20.4465H8.30333Z" fill="black"/>
<path fill-rule="evenodd" clip-rule="evenodd" d="M21.9998 12.6965C20.0355 12.6965 17.1248 14.1072 17.1248 17.8572C17.1248 20.1406 18.3748 23.0715 22.1248 23.0715C25.1248 23.0715 26.5057 20.8691 26.8212 19.7679H23.9998C23.8569 20.2679 23.3033 20.8215 22.1248 20.8215C20.4105 20.8215 19.8033 19.3572 19.714 18.6251H26.8212V17.8572C26.8212 14.1072 23.964 12.6965 21.9998 12.6965ZM21.9998 14.8393C20.3998 14.8393 19.8093 16.1608 19.714 16.8215H23.9998C23.9998 16.1608 23.5998 14.8393 21.9998 14.8393Z" fill="black"/>
<path d="M18.589 9.64291V11.3751H25.3212V9.64291H18.589Z" fill="black"/>
</g>
<defs>
<clipPath id="clip0_155_5409">
<rect width="32" height="32" fill="white"/>
</clipPath>
</defs>
</svg>
