<svg width="32" height="32" viewBox="0 0 32 32" fill="none" xmlns="http://www.w3.org/2000/svg">
<g clip-path="url(#clip0_155_5405)">
<path fill-rule="evenodd" clip-rule="evenodd" d="M32 16C32 24.8366 24.8366 32 16 32C7.16344 32 0 24.8366 0 16C0 7.16344 7.16344 0 16 0C24.8366 0 32 7.16344 32 16ZM21.6274 28.5103C19.9104 29.2838 18.0055 29.7143 16 29.7143C12.6892 29.7143 9.65246 28.5411 7.28275 26.5878C9.74793 22.4511 13.713 19.3146 18.4263 17.927C19.7801 21.3236 20.8564 24.8607 21.6274 28.5103ZM23.7128 27.3416C22.9533 23.9259 21.9349 20.6077 20.6794 17.4088C21.7245 17.2339 22.7981 17.1429 23.8928 17.1429C25.8704 17.1429 27.7768 17.4396 29.5709 17.9903C29.0065 21.8722 26.8161 25.2271 23.7128 27.3416ZM29.7099 15.6495C27.8581 15.133 25.9069 14.8571 23.8928 14.8571C22.4889 14.8571 21.1162 14.9911 19.787 15.2468C19.4403 14.4466 19.0785 13.6545 18.7021 12.8708C21.6942 11.5427 24.4594 9.79636 26.9231 7.70618C28.6087 9.92275 29.6351 12.668 29.7099 15.6495ZM25.3927 6.007C23.0797 7.96094 20.4843 9.59034 17.6763 10.8252C16.194 7.99069 14.5162 5.27466 12.661 2.69504C13.7298 2.42767 14.8483 2.28571 16 2.28571C19.6344 2.28571 22.9386 3.69945 25.3927 6.007ZM10.4029 3.47612C6.37685 5.27817 3.37837 8.96457 2.52926 13.4135C3.30946 13.4708 4.09767 13.5 4.89288 13.5C8.62764 13.5 12.2115 12.8562 15.5399 11.6733C14.0282 8.80815 12.3092 6.06911 10.4029 3.47612ZM2.2892 15.6877C2.28688 15.7915 2.28571 15.8956 2.28571 16C2.28571 19.4195 3.53718 22.5466 5.60709 24.9485C8.33375 20.6278 12.5509 17.3395 17.5375 15.807C17.2296 15.1078 16.9097 14.4149 16.5783 13.7288C12.9334 15.0595 8.99769 15.7857 4.89288 15.7857C4.01706 15.7857 3.14877 15.7527 2.2892 15.6877Z" fill="white"/>
</g>
<defs>
<clipPath id="clip0_155_5405">
<rect width="32" height="32" fill="white"/>
</clipPath>
</defs>
</svg>
