<svg width="32" height="32" viewBox="0 0 32 32" fill="none" xmlns="http://www.w3.org/2000/svg">
<path fill-rule="evenodd" clip-rule="evenodd" d="M12.572 11.9587H17.524V14.4254C18.2373 13.0067 20.0667 11.732 22.8147 11.732C28.0827 11.732 29.3333 14.556 29.3333 19.7374V29.3334H24V20.9174C24 17.9667 23.2867 16.3027 21.4707 16.3027C18.952 16.3027 17.9053 18.096 17.9053 20.916V29.3334H12.572V11.9587ZM3.42666 29.1067H8.75999V11.732H3.42666V29.1067ZM9.52399 6.06669C9.52419 6.51372 9.43553 6.95633 9.26317 7.3688C9.09081 7.78127 8.83819 8.15537 8.51999 8.46935C7.87519 9.11019 7.0024 9.46889 6.09332 9.46669C5.18584 9.46608 4.31507 9.10829 3.66932 8.47069C3.35227 8.15564 3.1005 7.78112 2.92845 7.3686C2.75639 6.95607 2.66743 6.51365 2.66666 6.06669C2.66666 5.16402 3.02666 4.30002 3.67066 3.66269C4.31584 3.02423 5.18698 2.66629 6.09466 2.66669C7.00399 2.66669 7.87599 3.02535 8.51999 3.66269C9.16266 4.30002 9.52399 5.16402 9.52399 6.06669Z" fill="black"/>
</svg>
